<svg width="40" height="40" viewBox="0 0 40 40" fill="none" xmlns="http://www.w3.org/2000/svg">
<g id="fi_3128304">
<g id="_x30_1._Facebook">
<path id="Icon_11_" d="M16.1748 22.0666C16.0492 22.0666 13.4144 22.0674 12.1992 22.0662C11.5736 22.0658 11.3504 21.841 11.3504 21.2114C11.3496 19.5942 11.3492 17.977 11.3504 16.3598C11.3508 15.7382 11.5868 15.501 12.2044 15.5006C13.4196 15.4998 16.04 15.5002 16.1748 15.5002C16.1748 15.3894 16.1744 13.0546 16.1748 11.9794C16.1756 10.3898 16.4592 8.86825 17.2668 7.47505C18.0936 6.04905 19.2968 5.07225 20.8388 4.50745C21.8264 4.14545 22.8516 4.00105 23.8996 4.00025C25.2108 3.99945 26.522 4.00065 27.8336 4.00305C28.3972 4.00385 28.6472 4.25305 28.6484 4.82065C28.6508 6.34185 28.6508 7.86305 28.6484 9.38385C28.6476 9.95745 28.408 10.1878 27.8316 10.1942C26.7568 10.2058 25.6812 10.1986 24.6076 10.2418C23.5232 10.2418 22.9528 10.7714 22.9528 11.8938C22.9268 13.081 22.942 14.2694 22.942 15.4998C23.0436 15.4998 26.1296 15.4994 27.572 15.4998C28.2272 15.4998 28.4512 15.725 28.4512 16.3838C28.4512 17.9922 28.4508 19.601 28.4496 21.2094C28.4492 21.8586 28.2388 22.0658 27.5796 22.0662C26.1372 22.067 23.0632 22.0666 22.9288 22.0666V35.0846C22.9288 35.7786 22.7104 35.9998 22.0256 35.9998C20.356 35.9998 18.686 36.0002 17.0164 35.9998C16.4112 35.9998 16.1752 35.7646 16.1752 35.1594C16.1748 30.9198 16.1748 22.2154 16.1748 22.0666Z" fill="#3D6AD6"/>
</g>
</g>
</svg>
