<svg width="25" height="10" viewBox="0 0 25 10" fill="none" xmlns="http://www.w3.org/2000/svg">
<g id="Logo">
<path id="XMLID_34_" d="M5.10281 1.39388C4.82123 1.72709 4.3707 1.9899 3.92017 1.95235C3.86385 1.50182 4.08443 1.02313 4.34254 0.727471C4.62412 0.38488 5.11689 0.140842 5.5158 0.12207C5.56273 0.591373 5.3797 1.05129 5.10281 1.39388ZM5.51111 2.04152C4.85877 2.00397 4.3003 2.41227 3.99056 2.41227C3.67613 2.41227 3.20214 2.06029 2.6859 2.06968C2.0148 2.07906 1.39063 2.4592 1.04804 3.0646C0.344082 4.2754 0.865008 6.06814 1.5455 7.05367C1.8787 7.54175 2.27761 8.07675 2.80323 8.05798C3.30069 8.03921 3.4978 7.73416 4.0985 7.73416C4.7039 7.73416 4.87755 8.05798 5.40317 8.04859C5.94756 8.03921 6.29015 7.56052 6.62335 7.07245C7.00349 6.51867 7.15836 5.97897 7.16774 5.95081C7.15836 5.94143 6.11651 5.54252 6.10712 4.3411C6.09773 3.33679 6.9284 2.85811 6.96594 2.82995C6.49664 2.13538 5.76453 2.06029 5.51111 2.04152ZM9.27961 0.680541V7.99697H10.4153V5.49559H11.9875C13.4236 5.49559 14.4326 4.51005 14.4326 3.08337C14.4326 1.65669 13.4423 0.680541 12.025 0.680541H9.27961ZM10.4153 1.63792H11.7247C12.7102 1.63792 13.2734 2.16354 13.2734 3.08806C13.2734 4.01259 12.7102 4.5429 11.72 4.5429H10.4153V1.63792ZM16.5069 8.05329C17.2202 8.05329 17.8819 7.69193 18.1823 7.11938H18.2057V7.99697H19.257V4.35518C19.257 3.29925 18.4122 2.61876 17.1123 2.61876C15.9062 2.61876 15.0145 3.30864 14.9816 4.25663H16.0047C16.0892 3.8061 16.5069 3.51044 17.0794 3.51044C17.774 3.51044 18.1635 3.83426 18.1635 4.43027V4.83387L16.7462 4.91834C15.4275 4.99813 14.7141 5.53782 14.7141 6.47643C14.7141 7.42442 15.4509 8.05329 16.5069 8.05329ZM16.8119 7.18508C16.2065 7.18508 15.8217 6.89411 15.8217 6.44827C15.8217 5.98836 16.1924 5.72085 16.9011 5.67862L18.1635 5.59883V6.01182C18.1635 6.697 17.5816 7.18508 16.8119 7.18508ZM20.6602 9.98682C21.7678 9.98682 22.2887 9.56444 22.7439 8.28325L24.7384 2.68916H23.584L22.2464 7.01144H22.223L20.8855 2.68916H19.6981L21.6223 8.01574L21.519 8.33956C21.3454 8.88865 21.0638 9.09983 20.5616 9.09983C20.4725 9.09983 20.2988 9.09045 20.2284 9.08106V9.95866C20.2941 9.97743 20.5757 9.98682 20.6602 9.98682Z" fill="white"/>
</g>
</svg>
