<svg width="30" height="12" viewBox="0 0 30 12" fill="none" xmlns="http://www.w3.org/2000/svg">
<g id="BKash-Logo.wine 1" clip-path="url(#clip0_486_11392)">
<path id="polygon161" d="M26.7221 6.60827L20.6172 5.79883L21.4265 8.87685L26.7221 6.60827Z" fill="#D12053"/>
<path id="polygon163" d="M26.7209 6.60816L22.1207 1.2002L20.6172 5.79969L26.7209 6.60816Z" fill="#E2136E"/>
<path id="polygon165" d="M20.4744 5.73757L15.6543 0.525391L21.9664 1.1634L20.4744 5.73757Z" fill="#D12053"/>
<path id="polygon167" d="M18.2801 3.55896L15.6035 1.4248H16.3081L18.2801 3.55896Z" fill="#9E1638"/>
<path id="polygon169" d="M28.0237 3.97949L26.8909 6.57925L25.0547 4.43048L28.0237 3.97949Z" fill="#D12053"/>
<path id="polygon171" d="M22.1387 8.72047L26.5835 7.2097L26.77 6.72949L22.1387 8.72047Z" fill="#E2136E"/>
<path id="polygon173" d="M18.584 11.5724L20.4881 5.9209L21.454 9.59796L18.584 11.5724Z" fill="#9E1638"/>
<path id="polygon175" d="M28.1998 4L27.7324 5.07341L29.4178 5.05003L28.1998 4Z" fill="#E2136E"/>
<path id="path177" d="M0.974609 4.43066C1.05635 4.43651 1.13923 4.44917 1.22673 4.44917C1.31422 4.44917 1.38559 4.43651 1.47884 4.43066V6.71677C1.74477 6.33397 2.07978 6.08169 2.5725 6.08169C3.46354 6.08169 3.84575 6.82782 3.84575 7.51355C3.84575 8.33468 3.3277 9.12075 2.41939 9.12075C2.23753 9.12412 2.05805 9.08534 1.90038 9.00859C1.74271 8.93184 1.61286 8.82006 1.52489 8.68534C1.37293 8.79833 1.23824 8.93373 1.09434 9.05646H0.979214L0.974609 4.43066ZM1.46733 7.79311C1.46733 8.45936 1.80118 8.92399 2.35031 8.92399C3.06292 8.92399 3.29201 8.11357 3.29201 7.53888C3.29201 6.87165 3.03184 6.34663 2.41478 6.34079C1.69412 6.33592 1.46733 7.05769 1.46733 7.79408" fill="#E2136E"/>
<path id="path179" d="M6.16892 5.9083L5.63245 6.49273C6.13668 7.11613 6.65933 7.72686 7.16587 8.35805L7.67701 9.03989V9.07398C7.55153 9.06716 7.43756 9.05353 7.33165 9.05353C7.22573 9.05353 7.09219 9.06716 6.97937 9.07398C6.84008 8.85579 6.70193 8.65416 6.54421 8.45643L5.16275 6.72748C5.13167 6.70021 5.05684 6.67878 5.05684 6.70703V9.07398C4.95553 9.06716 4.86689 9.05353 4.7794 9.05353C4.6919 9.05353 4.5906 9.06716 4.50195 9.07398V4.42968C4.5906 4.43553 4.68615 4.45014 4.7794 4.45014C4.87265 4.45014 4.95553 4.43553 5.05684 4.42968V6.52585C5.05684 6.56676 5.15124 6.53949 5.21341 6.48494C5.33332 6.37975 5.44557 6.26851 5.54956 6.15181L7.10255 4.42773C7.18429 4.43358 7.26603 4.44819 7.35467 4.44819C7.44331 4.44819 7.51124 4.43358 7.60103 4.42773L6.16892 5.9083Z" fill="#231F20"/>
<path id="path181" d="M10.3475 8.55126C10.3475 8.79283 10.3291 8.91556 10.7009 8.83569V8.97108C10.6402 8.99683 10.5765 9.01739 10.511 9.03245C10.1829 9.08797 9.91119 9.03829 9.86053 8.67497L9.80412 8.72854C9.69444 8.85014 9.55297 8.9486 9.39079 9.0162C9.2286 9.0838 9.05012 9.1187 8.86934 9.11816C8.42266 9.11816 8.03125 8.8201 8.03125 8.36327C8.03125 7.65903 8.60686 7.56649 9.19743 7.47396C9.69706 7.39408 9.86744 7.35707 9.86744 7.05998C9.86744 6.60217 9.60266 6.33723 9.12951 6.33723C8.96792 6.33455 8.80927 6.37395 8.67501 6.45008C8.54076 6.52622 8.4374 6.63541 8.37892 6.76289H8.30984V6.42003C8.59392 6.2109 8.95462 6.09117 9.33097 6.08105C9.99292 6.08105 10.3533 6.42003 10.3533 7.11843L10.3475 8.55126ZM9.84327 7.53142L9.62108 7.57428C9.19168 7.65416 8.54815 7.71552 8.54815 8.2795C8.54815 8.66912 8.77839 8.86393 9.1652 8.86393C9.36529 8.84308 9.54827 8.758 9.67634 8.62626C9.72239 8.58146 9.84902 8.47626 9.84902 8.43145L9.84327 7.53142Z" fill="#231F20"/>
<path id="path183" d="M11.4721 8.46972C11.6218 8.71226 11.9004 8.92947 12.1974 8.92947C12.3668 8.92216 12.5263 8.85929 12.6419 8.75419C12.7575 8.64909 12.8202 8.51002 12.8167 8.36647C12.8167 7.53268 11.3259 8.07425 11.3259 6.995C11.3259 6.40277 11.7864 6.08231 12.3539 6.08231C12.6049 6.07759 12.8523 6.13296 13.0677 6.24205C13.0055 6.38496 12.9555 6.53144 12.918 6.68038H12.8605C12.7776 6.4768 12.5577 6.27225 12.324 6.27225C12.0086 6.27225 11.7484 6.45245 11.7484 6.78655C11.7484 7.57651 13.2392 7.15572 13.2392 8.14439C13.2392 8.80577 12.6337 9.11844 12.0765 9.11844C11.7974 9.11826 11.5243 9.05067 11.2891 8.92363C11.3456 8.77544 11.3898 8.62409 11.4215 8.47069L11.4721 8.46972Z" fill="#231F20"/>
<path id="path185" d="M14.0898 4.43066C14.1739 4.43651 14.2556 4.44917 14.3431 4.44917C14.4306 4.44917 14.502 4.43651 14.5964 4.43066V6.67976C14.8174 6.3028 15.1639 6.08169 15.6129 6.08169C16.3451 6.08169 16.6294 6.50638 16.6294 7.28562V9.07496C16.5339 9.06814 16.4602 9.05646 16.3762 9.05646C16.2921 9.05646 16.2058 9.06912 16.1229 9.07496V7.42686C16.1229 6.74502 15.9606 6.40118 15.423 6.40118C14.8543 6.40118 14.5964 6.74794 14.5964 7.38985V9.07496C14.502 9.06814 14.4272 9.05646 14.3431 9.05646C14.2591 9.05646 14.175 9.06912 14.0898 9.07496V4.43066Z" fill="#231F20"/>
</g>
<defs>
<clipPath id="clip0_486_11392">
<rect width="28.4854" height="11.0777" fill="white" transform="translate(0.953125 0.515625)"/>
</clipPath>
</defs>
</svg>
