<svg width="40" height="40" viewBox="0 0 40 40" fill="none" xmlns="http://www.w3.org/2000/svg">
<g id="fi_179309">
<g id="Group">
<path id="Vector" d="M25.8455 6.07921C27.3506 4.46789 28.3687 2.23079 28.09 0C25.9216 0.0773827 23.2936 1.27284 21.7372 2.88402C20.342 4.31038 19.1205 6.59002 19.4465 8.77704C21.866 8.94072 24.3379 7.68792 25.8455 6.07921ZM30.4634 21.4851C30.4171 16.4839 34.4229 14.0819 34.6003 13.9658C32.3483 10.5696 28.8409 10.1049 27.5918 10.0525C24.6053 9.73897 21.7686 11.8611 20.2524 11.8611C18.7423 11.8611 16.4066 10.0936 13.9297 10.1411C10.6734 10.1948 7.67305 12.0909 6.00067 15.0961C2.61806 21.1417 5.13369 30.0973 8.42986 35.0011C10.0412 37.4018 11.9597 40.0948 14.479 39.9974C16.9109 39.9 17.8277 38.3799 20.7618 38.3799C23.6972 38.3799 24.519 39.9974 27.087 39.9487C29.7001 39.9 31.3538 37.5018 32.9514 35.0936C34.7999 32.3095 35.562 29.614 35.6056 29.4779C35.5495 29.4454 30.517 27.4656 30.4634 21.4851Z" fill="#CCD0D2"/>
</g>
</g>
</svg>
