<svg width="24" height="24" viewBox="0 0 24 24" fill="none" xmlns="http://www.w3.org/2000/svg">
<g id="fi_1139982" clip-path="url(#clip0_488_17388)">
<path id="Vector" d="M21.3654 23.9844H2.63257C2.14185 23.9844 1.74414 23.5867 1.74414 23.096V8.77148H22.254V23.096C22.254 23.5867 21.8561 23.9844 21.3654 23.9844Z" fill="#FFC73B"/>
<path id="Vector_2" d="M1.74414 8.77148H22.254V11.7523H1.74414V8.77148Z" fill="#EFB025"/>
<path id="Vector_3" d="M24 5.66315V9.35602C24 9.75043 23.6799 10.0699 23.2855 10.0699H0.713928C0.319519 10.0699 0 9.75043 0 9.35602V5.66315C0 5.26874 0.319519 4.94922 0.713928 4.94922H23.2855C23.6799 4.94922 24 5.26874 24 5.66315Z" fill="#FFC73B"/>
<path id="Vector_4" d="M11.1833 6.64722C11.0275 6.82867 10.8746 7.0127 10.7253 7.19873C10.1693 7.89069 9.66022 8.61578 9.20007 9.36835C9.05853 9.59979 8.92194 9.83362 8.78937 10.0702H3.92188C4.20624 9.42493 4.51807 8.79156 4.8559 8.17249C5.46857 7.04932 6.16766 5.97156 6.94879 4.94946C7.13538 4.70538 7.32635 4.46423 7.52209 4.22675C7.63928 4.08356 7.75848 3.94238 7.87933 3.80176C8.32355 4.18445 8.7674 4.56677 9.21179 4.94946C9.28064 5.00842 9.34949 5.06812 9.41815 5.12726C9.94257 5.5788 10.467 6.03015 10.9912 6.48224C11.0555 6.5368 11.1192 6.59229 11.1833 6.64722Z" fill="#EFB025"/>
<path id="Vector_5" d="M18.4461 10.0702H13.5782C13.4462 9.83362 13.3091 9.59979 13.1675 9.36835C12.7074 8.61578 12.1978 7.89069 11.6423 7.19873C11.4925 7.0127 11.3396 6.82867 11.1836 6.64722C11.2479 6.59229 11.3116 6.53717 11.3759 6.48224C11.9006 6.03015 12.425 5.57825 12.9493 5.12726C13.0181 5.06812 13.087 5.00842 13.1558 4.94946C13.6 4.56677 14.0444 4.18445 14.4883 3.80176C14.6091 3.94202 14.7283 4.08356 14.8455 4.22638C15.0416 4.46423 15.2328 4.70538 15.4188 4.94946C16.2 5.97156 16.899 7.04932 17.5121 8.17249C17.8499 8.79156 18.1617 9.42493 18.4461 10.0702Z" fill="#EFB025"/>
<g id="Group">
<path id="Vector_6" d="M12.0001 6.6474C11.8441 6.82867 11.6912 7.0127 11.542 7.19873C10.9861 7.89069 10.4769 8.61578 10.0167 9.36853C8.55591 11.7564 7.58563 14.4239 7.17639 17.2159C6.56134 16.4001 5.99371 15.5176 5.48303 14.5739C4.58472 15.1598 3.70673 15.83 2.86133 16.584C3.29547 13.6224 4.25201 10.7759 5.67273 8.17249C6.43152 6.78125 7.32324 5.45941 8.33875 4.22675C8.45593 4.08356 8.57513 3.94257 8.69598 3.80176C9.20905 4.24359 9.72174 4.68542 10.235 5.12726C10.7592 5.5788 11.2836 6.03015 11.808 6.48224C11.8721 6.5368 11.9359 6.59229 12.0001 6.6474Z" fill="#FF4440"/>
<path id="Vector_7" d="M21.1392 16.584C20.2938 15.83 19.4158 15.1598 18.5175 14.5739C18.0068 15.5176 17.4391 16.4001 16.8241 17.2159C16.4149 14.4239 15.4448 11.7564 13.9838 9.36853C13.5236 8.61578 13.014 7.89069 12.4585 7.19873C12.3087 7.0127 12.1558 6.82867 12 6.6474C12.0641 6.59229 12.1278 6.53717 12.1921 6.48224C12.7169 6.03015 13.2413 5.57825 13.7657 5.12726C14.2787 4.68488 14.792 4.24359 15.3045 3.80176C15.4254 3.94202 15.5446 4.08356 15.6617 4.22638C16.6774 5.45905 17.5692 6.78088 18.3283 8.17249C19.7487 10.7759 20.705 13.6224 21.1392 16.584Z" fill="#FF4440"/>
<path id="Vector_8" d="M10.0898 6.64746H13.9114V10.0701H10.0898V6.64746Z" fill="#FF4440"/>
</g>
<path id="Vector_9" d="M18.3283 8.17267L13.9838 9.36871C13.5236 8.61597 13.014 7.89087 12.4585 7.19891L12.1921 6.48242L12 5.9657L13.7657 5.12744L15.6617 4.22656C16.6774 5.45923 17.5692 6.78107 18.3283 8.17267Z" fill="#EA2F2F"/>
<path id="Vector_10" d="M11.9993 5.96631L11.8072 6.48303L11.5411 7.19952C10.9852 7.89148 10.476 8.61658 10.0159 9.36932L5.67188 8.17328C6.43066 6.78204 7.32239 5.4602 8.33789 4.22754L10.2341 5.12805L11.9993 5.96631Z" fill="#EA2F2F"/>
<path id="Vector_11" d="M18.9337 0.166039L12 3.45883L13.3319 7.04092L20.7327 5.00387C21.7006 4.73745 22.2323 3.69869 21.8824 2.75771L21.2715 1.11526C20.9218 0.174279 19.8406 -0.264625 18.9337 0.166039Z" fill="#FF4440"/>
<path id="Vector_12" d="M5.06624 0.166039L11.9999 3.45883L10.668 7.04092L3.26741 5.00387C2.29952 4.73745 1.76778 3.69869 2.1177 2.75771L2.72835 1.11526C3.07827 0.174279 4.15932 -0.264625 5.06624 0.166039Z" fill="#FF4440"/>
<path id="Vector_13" d="M13.656 4.89878C13.53 4.89878 13.4064 4.83652 13.3337 4.72245C13.22 4.54465 13.2718 4.30845 13.4496 4.19474C13.5022 4.16123 14.751 3.36655 16.1847 2.78666C18.2516 1.9506 19.6318 1.99546 20.2866 2.91996C20.4087 3.09226 20.3679 3.33085 20.1956 3.45279C20.0233 3.57474 19.7849 3.53409 19.663 3.36179C18.7753 2.10862 15.0844 4.05722 13.8614 4.83872C13.7977 4.87937 13.7265 4.89878 13.656 4.89878Z" fill="#EA2F2F"/>
<path id="Vector_14" d="M10.3065 4.89878C10.236 4.89878 10.1648 4.87937 10.1011 4.83872C8.87809 4.05722 5.18723 2.10862 4.29954 3.36179C4.17741 3.53409 3.939 3.57474 3.7667 3.45279C3.59458 3.33066 3.55375 3.09226 3.67588 2.91996C4.33067 1.99546 5.71073 1.9506 7.77781 2.78666C9.21153 3.36637 10.4603 4.16123 10.5129 4.19474C10.6907 4.30845 10.7425 4.54465 10.6289 4.72245C10.5559 4.83652 10.4325 4.89878 10.3065 4.89878Z" fill="#EA2F2F"/>
<path id="Vector_15" d="M13.0881 2.22754H10.9135C10.3184 2.22754 9.83594 2.71002 9.83594 3.3053V6.46442C9.83594 7.05969 10.3184 7.54218 10.9135 7.54218H13.0881C13.6832 7.54218 14.1656 7.05969 14.1656 6.46442V3.3053C14.1656 2.71002 13.6832 2.22754 13.0881 2.22754Z" fill="#EA2F2F"/>
<path id="Vector_16" d="M10.0898 10.0703H13.9114V23.9839H10.0898V10.0703Z" fill="#FF4440"/>
<path id="Vector_17" d="M10.0898 10.0703H13.9114V11.7518H10.0898V10.0703Z" fill="#EA2F2F"/>
</g>
<defs>
<clipPath id="clip0_488_17388">
<rect width="24" height="24" fill="white"/>
</clipPath>
</defs>
</svg>
