<svg width="34" height="34" viewBox="0 0 34 34" fill="none" xmlns="http://www.w3.org/2000/svg">
<g id="vuesax/bulk/global-refresh">
<g id="global-refresh">
<path id="Vector" d="M32.0878 25.684C31.9461 25.1173 31.3795 24.7631 30.8128 24.9048C30.2462 25.0464 29.892 25.6131 30.0195 26.1798C30.0762 26.4206 30.1045 26.6615 30.1045 26.9165C30.1045 28.6731 28.6737 30.104 26.917 30.104C25.1603 30.104 23.7295 28.6731 23.7295 26.9165C23.7295 25.3581 24.8487 24.069 26.3362 23.7856C26.1945 24.1115 26.2087 24.5081 26.4353 24.8198C26.6478 25.1031 26.9736 25.2589 27.2995 25.2589C27.512 25.2589 27.7386 25.1881 27.9228 25.0606L29.5803 23.8565C29.5945 23.8423 29.5945 23.8281 29.6087 23.8281C29.6228 23.814 29.637 23.8139 29.6511 23.7998C29.6936 23.7573 29.722 23.7148 29.7503 23.6582C29.7928 23.6015 29.8495 23.5589 29.8778 23.4881C29.9062 23.4314 29.9203 23.3607 29.9487 23.304C29.9628 23.2332 29.9911 23.1765 30.0053 23.1056C30.0195 23.0348 30.0053 22.9782 29.9912 22.9073C29.9912 22.8365 29.9911 22.7656 29.9628 22.6948C29.9487 22.624 29.9062 22.5673 29.8778 22.5107C29.8495 22.454 29.8353 22.3973 29.807 22.3548C29.7928 22.3406 29.7787 22.3406 29.7645 22.3265C29.7503 22.3123 29.7503 22.2981 29.7361 22.284L28.3195 20.6548C27.937 20.2156 27.257 20.159 26.8178 20.5556C26.5061 20.839 26.3928 21.2498 26.5061 21.6323C23.772 21.8448 21.6045 24.1115 21.6045 26.9023C21.6045 29.8348 23.9845 32.2148 26.917 32.2148C29.8495 32.2148 32.2295 29.8348 32.2295 26.9023C32.2295 26.5056 32.187 26.0806 32.0878 25.684Z" fill="#292929"/>
<path id="Vector_2" opacity="0.4" d="M2.87597 20.7256C2.87597 20.7681 2.84766 20.8248 2.84766 20.8673C4.15099 23.4739 6.27596 25.6131 8.88263 26.9022C8.92513 26.9022 8.9818 26.8739 9.0243 26.8739C8.54264 25.2306 8.17429 23.5447 7.90512 21.8589C6.20512 21.5756 4.51931 21.2073 2.87597 20.7256Z" fill="#292929"/>
<path id="Vector_3" opacity="0.4" d="M27.0161 9.10887C25.6845 6.31803 23.4319 4.06555 20.6553 2.74805C21.1653 4.43388 21.5903 6.16222 21.8736 7.89055C23.602 8.17389 25.3303 8.5847 27.0161 9.10887Z" fill="#292929"/>
<path id="Vector_4" opacity="0.4" d="M2.73438 9.10883C4.43438 8.59883 6.16273 8.17385 7.89106 7.89052C8.1744 6.20469 8.52853 4.53302 9.0102 2.88969C8.9677 2.88969 8.91107 2.86133 8.86857 2.86133C6.20523 4.17883 4.03771 6.403 2.73438 9.10883Z" fill="#292929"/>
<path id="Vector_5" opacity="0.4" d="M19.5786 7.59317C19.2386 5.7515 18.8136 3.90986 18.2044 2.12486C18.1761 2.02569 18.1761 1.9407 18.1619 1.82737C17.1136 1.57237 16.0086 1.40234 14.8752 1.40234C13.7277 1.40234 12.6369 1.5582 11.5744 1.82737C11.5602 1.92654 11.5744 2.01152 11.546 2.12486C10.951 3.90986 10.5119 5.7515 10.1719 7.59317C13.3027 7.25317 16.4477 7.25317 19.5786 7.59317Z" fill="#292929"/>
<path id="Vector_6" opacity="0.4" d="M7.59317 10.1719C5.73734 10.5119 3.90986 10.9369 2.12486 11.546C2.02569 11.5744 1.9407 11.5744 1.82737 11.5885C1.57237 12.6369 1.40234 13.7419 1.40234 14.8752C1.40234 16.0227 1.5582 17.1135 1.82737 18.176C1.92654 18.1902 2.01152 18.1761 2.12486 18.2044C3.90986 18.7994 5.73734 19.2386 7.59317 19.5786C7.25317 16.4477 7.25317 13.3027 7.59317 10.1719Z" fill="#292929"/>
<path id="Vector_7" opacity="0.4" d="M27.9084 11.5885C27.8093 11.5885 27.7242 11.5744 27.6109 11.546C25.8259 10.951 23.9842 10.5119 22.1426 10.1719C22.4967 13.3027 22.4967 16.4477 22.1426 19.5644C23.9842 19.2244 25.8259 18.7994 27.6109 18.1902C27.7101 18.1619 27.7951 18.1761 27.9084 18.1619C28.1634 17.0994 28.3334 16.0085 28.3334 14.861C28.3334 13.7419 28.1776 12.651 27.9084 11.5885Z" fill="#292929"/>
<path id="Vector_8" opacity="0.4" d="M10.1719 22.1562C10.5119 24.0121 10.9369 25.8396 11.546 27.6246C11.5744 27.7237 11.5602 27.8087 11.5744 27.9221C12.6369 28.1771 13.7277 28.3471 14.8752 28.3471C16.0086 28.3471 17.1136 28.1912 18.1619 27.9221C18.1761 27.8229 18.1761 27.7379 18.2044 27.6246C18.7994 25.8396 19.2386 24.0121 19.5786 22.1562C18.0202 22.3262 16.4477 22.4537 14.8752 22.4537C13.3027 22.4396 11.7302 22.3262 10.1719 22.1562Z" fill="#292929"/>
<path id="Vector_9" opacity="0.4" d="M9.84609 9.84609C9.42109 13.1894 9.42109 16.5611 9.84609 19.9186C13.1894 20.3436 16.5611 20.3436 19.9186 19.9186C20.3436 16.5752 20.3436 13.2036 19.9186 9.84609C16.5611 9.42109 13.1894 9.42109 9.84609 9.84609Z" fill="#292929"/>
</g>
</g>
</svg>
