<svg width="31" height="13" viewBox="0 0 31 13" fill="none" xmlns="http://www.w3.org/2000/svg">
<g id="Logo">
<path id="Vector" d="M14.6728 5.91546V9.4646H13.5469V0.699808H16.533C16.8895 0.692362 17.2439 0.75558 17.5758 0.885813C17.9076 1.01605 18.2105 1.21072 18.4667 1.45859C18.7256 1.69141 18.9316 1.97694 19.0709 2.296C19.2102 2.61505 19.2796 2.96023 19.2744 3.30833C19.2819 3.6583 19.2135 4.00574 19.0741 4.32682C18.9347 4.64791 18.7275 4.93505 18.4667 5.16857C17.9445 5.6665 17.3 5.91523 16.533 5.91476H14.6728V5.91546ZM14.6728 1.77888V4.83848H16.561C16.768 4.84462 16.974 4.80748 17.1659 4.72945C17.3577 4.65142 17.5311 4.53421 17.6751 4.38531C17.8182 4.2461 17.9321 4.07959 18.0098 3.89563C18.0875 3.71167 18.1276 3.51399 18.1276 3.31428C18.1276 3.11457 18.0875 2.91689 18.0098 2.73293C17.9321 2.54897 17.8182 2.38246 17.6751 2.24324C17.5329 2.09121 17.3601 1.97113 17.168 1.89095C16.976 1.81078 16.7691 1.77234 16.561 1.77819H14.6728V1.77888Z" fill="white"/>
<path id="Vector_2" d="M21.8693 3.27246C22.7015 3.27246 23.3584 3.49485 23.8401 3.93963C24.3217 4.38441 24.5622 4.99423 24.5618 5.76909V9.46509H23.4848V8.63288H23.4358C22.9696 9.31823 22.3495 9.6609 21.5756 9.6609C20.915 9.6609 20.3623 9.46509 19.9175 9.07346C19.704 8.89371 19.5334 8.66861 19.418 8.41454C19.3025 8.16048 19.2453 7.88386 19.2503 7.60485C19.2503 6.98431 19.4848 6.49081 19.9538 6.12436C20.4229 5.7579 21.049 5.57421 21.8323 5.57328C22.5008 5.57328 23.0514 5.69566 23.4841 5.94043V5.68308C23.4854 5.49287 23.4443 5.30476 23.3639 5.13239C23.2834 4.96003 23.1656 4.80772 23.019 4.68652C22.7213 4.41789 22.3333 4.27132 21.9323 4.27601C21.3033 4.27601 20.8056 4.54129 20.4392 5.07186L19.4475 4.44735C19.993 3.66409 20.8003 3.27246 21.8693 3.27246ZM20.4126 7.62933C20.4118 7.77263 20.4453 7.91403 20.5103 8.04176C20.5753 8.16948 20.6698 8.27984 20.786 8.36363C21.0351 8.55951 21.3441 8.66328 21.6609 8.65736C22.136 8.65656 22.5915 8.46745 22.9274 8.13145C23.3004 7.78039 23.4869 7.36848 23.4869 6.89573C23.1358 6.61599 22.6463 6.47612 22.0183 6.47612C21.5609 6.47612 21.1795 6.58639 20.8742 6.80691C20.5658 7.0307 20.4126 7.30274 20.4126 7.62933Z" fill="white"/>
<path id="Vector_3" d="M30.745 3.46777L26.9854 12.1081H25.8231L27.2183 9.08485L24.7461 3.46777H25.9699L27.7567 7.77569H27.7812L29.5191 3.46777H30.745Z" fill="white"/>
<path id="Vector_4" d="M10.1243 5.15078C10.1247 4.80765 10.0957 4.46512 10.0376 4.12695H5.28906V6.06621H8.00878C7.95313 6.37594 7.83534 6.67119 7.6625 6.93417C7.48967 7.19715 7.26537 7.42241 7.00314 7.59636V8.85517H8.6263C9.5767 7.9789 10.1243 6.68303 10.1243 5.15078Z" fill="#4285F4"/>
<path id="Vector_5" d="M5.28985 10.0706C6.64866 10.0706 7.79278 9.62439 8.62709 8.85512L7.00392 7.59631C6.55215 7.90262 5.9703 8.07745 5.28985 8.07745C3.9765 8.07745 2.86175 7.19209 2.46313 5.99902H0.791016V7.29629C1.21011 8.13024 1.85273 8.83129 2.64715 9.32118C3.44158 9.81107 4.35652 10.0705 5.28985 10.0706Z" fill="#34A853"/>
<path id="Vector_6" d="M2.46218 5.99906C2.25145 5.37388 2.25145 4.69686 2.46218 4.07168V2.77441H0.790068C0.437516 3.47596 0.253906 4.25022 0.253906 5.03537C0.253906 5.82052 0.437516 6.59478 0.790068 7.29633L2.46218 5.99906Z" fill="#FBBC04"/>
<path id="Vector_7" d="M5.28985 1.99344C6.00792 1.98171 6.70177 2.25302 7.22142 2.74872L8.65856 1.31159C7.74726 0.455652 6.54 -0.0142711 5.28985 0.000330358C4.35652 0.000372895 3.44158 0.259823 2.64715 0.749714C1.85273 1.2396 1.21011 1.94066 0.791016 2.7746L2.46313 4.07187C2.86175 2.8788 3.9765 1.99344 5.28985 1.99344Z" fill="#EA4335"/>
</g>
</svg>
