<svg width="22" height="22" viewBox="0 0 22 22" fill="none" xmlns="http://www.w3.org/2000/svg">
<g id="fi_3177361" clip-path="url(#clip0_437_6806)">
<g id="Pin">
<path id="Vector" d="M11 0C8.81285 0.0029013 6.71612 0.873027 5.16957 2.41957C3.62303 3.96612 2.7529 6.06285 2.75 8.25C2.75 14.1728 10.4362 21.5909 10.7628 21.9038C10.8263 21.9655 10.9114 22 11 22C11.0886 22 11.1737 21.9655 11.2372 21.9038C11.5637 21.5909 19.25 14.1728 19.25 8.25C19.2471 6.06285 18.377 3.96612 16.8304 2.41957C15.2839 0.873027 13.1871 0.0029013 11 0ZM11 12.0312C10.2521 12.0312 9.52107 11.8095 8.89925 11.394C8.27743 10.9785 7.79277 10.388 7.50658 9.69702C7.22039 9.00609 7.14551 8.2458 7.29141 7.51231C7.43731 6.77882 7.79743 6.10507 8.32625 5.57625C8.85507 5.04743 9.52882 4.68731 10.2623 4.54141C10.9958 4.39551 11.7561 4.47039 12.447 4.75658C13.138 5.04277 13.7285 5.52743 14.144 6.14925C14.5595 6.77107 14.7812 7.50214 14.7812 8.25C14.7806 9.25267 14.3821 10.2141 13.6731 10.9231C12.9641 11.6321 12.0027 12.0306 11 12.0312Z" fill="url(#paint0_linear_437_6806)"/>
</g>
</g>
<defs>
<linearGradient id="paint0_linear_437_6806" x1="4.94243" y1="3.57306e-05" x2="24.4685" y2="0.235558" gradientUnits="userSpaceOnUse">
<stop stop-color="#73DDFF"/>
<stop offset="0.505208" stop-color="#3D67D4"/>
<stop offset="1" stop-color="#8908A9"/>
</linearGradient>
<clipPath id="clip0_437_6806">
<rect width="22" height="22" fill="white"/>
</clipPath>
</defs>
</svg>
