<svg width="37" height="10" viewBox="0 0 37 10" fill="none" xmlns="http://www.w3.org/2000/svg">
<g id="Logo">
<path id="Vector" d="M14.1793 2.63672H12.197C12.0614 2.63672 11.946 2.73527 11.9249 2.86917L11.1232 7.95216C11.1072 8.05245 11.1849 8.14288 11.2866 8.14288H12.233C12.3686 8.14288 12.484 8.04433 12.5052 7.91014L12.7214 6.53918C12.7422 6.40498 12.8579 6.30643 12.9932 6.30643H13.6208C14.9265 6.30643 15.6801 5.67457 15.8769 4.42245C15.9656 3.87464 15.8807 3.44422 15.6242 3.14279C15.3424 2.81178 14.8427 2.63672 14.1793 2.63672ZM14.408 4.49317C14.2996 5.20445 13.7561 5.20444 13.2306 5.20444H12.9315L13.1414 3.87609C13.1538 3.7958 13.2234 3.73668 13.3045 3.73668H13.4416C13.7996 3.73668 14.1373 3.73668 14.3117 3.94073C14.4158 4.06246 14.4477 4.24332 14.408 4.49317Z" fill="#253B80"/>
<path id="Vector_2" d="M20.1049 4.47013H19.1557C19.0748 4.47013 19.0049 4.52926 18.9925 4.60955L18.9505 4.87504L18.8841 4.77881C18.6786 4.48057 18.2203 4.38086 17.763 4.38086C16.714 4.38086 15.8181 5.17532 15.6436 6.28977C15.5529 6.84569 15.6819 7.37726 15.9972 7.74797C16.2865 8.08883 16.7004 8.23085 17.1928 8.23085C18.038 8.23085 18.5067 7.6874 18.5067 7.6874L18.4644 7.95115C18.4484 8.05202 18.5261 8.14245 18.6273 8.14245H19.4823C19.6183 8.14245 19.733 8.0439 19.7545 7.90971L20.2675 4.66085C20.2837 4.56085 20.2063 4.47013 20.1049 4.47013ZM18.7818 6.3176C18.6902 6.85989 18.2598 7.22394 17.7108 7.22394C17.4352 7.22394 17.2149 7.13553 17.0734 6.968C16.9331 6.80163 16.8798 6.56483 16.9244 6.30107C17.01 5.76341 17.4476 5.38749 17.9882 5.38749C18.2577 5.38749 18.4769 5.47705 18.6212 5.64603C18.7658 5.81675 18.8232 6.055 18.7818 6.3176Z" fill="#253B80"/>
<path id="Vector_3" d="M25.1589 4.4707H24.2051C24.1141 4.4707 24.0286 4.51592 23.977 4.59157L22.6614 6.52946L22.1037 4.66722C22.0686 4.5507 21.9611 4.4707 21.8394 4.4707H20.902C20.7881 4.4707 20.709 4.582 20.7452 4.68925L21.7959 7.7726L20.8081 9.16704C20.7304 9.27689 20.8087 9.4279 20.9429 9.4279H21.8956C21.986 9.4279 22.0707 9.38385 22.122 9.30965L25.2946 4.73011C25.3705 4.62055 25.2926 4.4707 25.1589 4.4707Z" fill="#253B80"/>
<path id="Vector_4" d="M28.318 2.63672H26.3354C26.2001 2.63672 26.0847 2.73527 26.0636 2.86917L25.2618 7.95216C25.2459 8.05245 25.3236 8.14288 25.4247 8.14288H26.4421C26.5366 8.14288 26.6174 8.0739 26.6322 7.97999L26.8598 6.53918C26.8806 6.40498 26.9963 6.30643 27.1316 6.30643H27.7589C29.0649 6.30643 29.8182 5.67457 30.0153 4.42245C30.1043 3.87464 30.0188 3.44422 29.7623 3.14279C29.4808 2.81178 28.9814 2.63672 28.318 2.63672ZM28.5466 4.49317C28.4385 5.20445 27.8951 5.20444 27.3693 5.20444H27.0705L27.2806 3.87609C27.2931 3.7958 27.3621 3.73668 27.4435 3.73668H27.5806C27.9383 3.73668 28.2762 3.73668 28.4507 3.94073C28.5548 4.06246 28.5864 4.24332 28.5466 4.49317Z" fill="#179BD7"/>
<path id="Vector_5" d="M34.2423 4.47013H33.2937C33.2122 4.47013 33.143 4.52926 33.1308 4.60955L33.0888 4.87504L33.0221 4.77881C32.8166 4.48057 32.3586 4.38086 31.9013 4.38086C30.8523 4.38086 29.9567 5.17532 29.7822 6.28977C29.6918 6.84569 29.8202 7.37726 30.1355 7.74797C30.4254 8.08883 30.8387 8.23085 31.3311 8.23085C32.1763 8.23085 32.645 7.6874 32.645 7.6874L32.6027 7.95115C32.5868 8.05202 32.6644 8.14245 32.7662 8.14245H33.6209C33.7563 8.14245 33.8716 8.0439 33.8928 7.90971L34.4061 4.66085C34.4218 4.56085 34.3441 4.47013 34.2423 4.47013ZM32.9192 6.3176C32.8282 6.85989 32.3972 7.22394 31.8482 7.22394C31.5732 7.22394 31.3523 7.13553 31.2109 6.968C31.0706 6.80163 31.0178 6.56483 31.0619 6.30107C31.148 5.76341 31.585 5.38749 32.1256 5.38749C32.3952 5.38749 32.6143 5.47705 32.7586 5.64603C32.9038 5.81675 32.9612 6.055 32.9192 6.3176Z" fill="#179BD7"/>
<path id="Vector_6" d="M35.3606 2.77642L34.547 7.95245C34.5311 8.05274 34.6087 8.14317 34.7099 8.14317H35.5278C35.6638 8.14317 35.7791 8.04462 35.8 7.91043L36.6023 2.82773C36.6182 2.72744 36.5405 2.63672 36.4394 2.63672H35.5235C35.4426 2.63701 35.3731 2.69614 35.3606 2.77642Z" fill="#179BD7"/>
<path id="Vector_7" d="M2.89028 9.13085L3.04187 8.16798L2.7042 8.16016H1.0918L2.21233 1.05522C2.21581 1.03377 2.22712 1.01377 2.24364 0.999567C2.26016 0.985365 2.28132 0.977539 2.30334 0.977539H5.02208C5.92465 0.977539 6.54753 1.16536 6.87273 1.53607C7.02519 1.70997 7.12229 1.89171 7.16924 2.0917C7.21851 2.30155 7.21938 2.55226 7.17127 2.85805L7.16779 2.88036V3.0763L7.32025 3.16267C7.44865 3.23078 7.55068 3.30875 7.62893 3.39802C7.75936 3.54671 7.84371 3.73569 7.87936 3.95974C7.91617 4.19017 7.904 4.46436 7.84371 4.77478C7.77415 5.13187 7.66169 5.44287 7.50981 5.69736C7.3701 5.93184 7.19214 6.12632 6.98084 6.27704C6.77911 6.42023 6.53941 6.52892 6.26841 6.59848C6.00581 6.66688 5.7064 6.70137 5.37801 6.70137H5.16642C5.01512 6.70137 4.86817 6.75587 4.75281 6.85354C4.63717 6.95325 4.56065 7.08948 4.53717 7.23845L4.52123 7.32512L4.25341 9.02215L4.24124 9.08447C4.23805 9.10418 4.23254 9.11403 4.22443 9.1207C4.21718 9.12679 4.20675 9.13085 4.1966 9.13085H2.89028Z" fill="#253B80"/>
<path id="Vector_8" d="M7.4648 2.90332C7.45668 2.9552 7.4474 3.00824 7.43697 3.06273C7.07843 4.90353 5.85181 5.53945 4.28521 5.53945H3.48756C3.29597 5.53945 3.13453 5.67857 3.10467 5.86755L2.69628 8.4576L2.58064 9.19177C2.56122 9.31582 2.65687 9.4277 2.78208 9.4277H4.19681C4.36434 9.4277 4.50665 9.30597 4.53302 9.14076L4.54694 9.06888L4.8133 7.37851L4.8304 7.28576C4.85649 7.11997 4.99909 6.99823 5.16662 6.99823H5.37821C6.74888 6.99823 7.82188 6.44173 8.13549 4.83136C8.2665 4.15863 8.19868 3.59692 7.85203 3.20186C7.7471 3.08273 7.61696 2.9839 7.4648 2.90332Z" fill="#179BD7"/>
<path id="Vector_9" d="M7.09053 2.75369C7.03575 2.73775 6.97923 2.72326 6.92126 2.71021C6.863 2.69746 6.8033 2.68616 6.74185 2.6763C6.52679 2.64152 6.29114 2.625 6.03869 2.625H3.90776C3.85529 2.625 3.80544 2.63688 3.76081 2.65833C3.66255 2.70558 3.58951 2.79862 3.57183 2.91253L3.11851 5.78372L3.10547 5.86748C3.13532 5.6785 3.29677 5.53938 3.48835 5.53938H4.286C5.85261 5.53938 7.07923 4.90317 7.43776 3.06266C7.44849 3.00817 7.45747 2.95513 7.46559 2.90325C7.37487 2.85514 7.27661 2.81398 7.17082 2.77891C7.14473 2.77021 7.11778 2.76181 7.09053 2.75369Z" fill="#222D65"/>
<path id="Vector_10" d="M3.57171 2.91217C3.58939 2.79826 3.66243 2.70522 3.76069 2.65827C3.80562 2.63682 3.85518 2.62494 3.90764 2.62494H6.03857C6.29103 2.62494 6.52667 2.64146 6.74173 2.67624C6.80318 2.68609 6.86289 2.6974 6.92115 2.71015C6.97912 2.72319 7.03563 2.73769 7.09042 2.75363C7.11766 2.76174 7.14462 2.77015 7.17099 2.77855C7.27678 2.81362 7.37504 2.85507 7.46576 2.9029C7.57242 2.22263 7.46489 1.75946 7.09708 1.34006C6.69159 0.878338 5.95973 0.680664 5.02325 0.680664H2.30451C2.11322 0.680664 1.95004 0.819789 1.92047 1.00906L0.788051 8.18704C0.765733 8.32906 0.875294 8.45717 1.01848 8.45717H2.69696L3.1184 5.78336L3.57171 2.91217Z" fill="#253B80"/>
</g>
</svg>
