<svg width="24" height="24" viewBox="0 0 24 24" fill="none" xmlns="http://www.w3.org/2000/svg">
<g id="fi_8754417" clip-path="url(#clip0_408_19507)">
<g id="Layer_x0020_1">
<path id="Vector" fill-rule="evenodd" clip-rule="evenodd" d="M11.9926 19.7958C7.69033 19.7958 4.18945 16.2949 4.18945 11.9926C4.18945 7.69033 7.69033 4.18945 11.9926 4.18945C16.2949 4.18945 19.7958 7.69033 19.7958 11.9926C19.7958 16.2949 16.2949 19.7958 11.9926 19.7958Z" fill="#FFC107"/>
<g id="Group">
<path id="Vector_2" fill-rule="evenodd" clip-rule="evenodd" d="M11.9925 3.00879C11.7957 3.00879 11.627 2.85413 11.627 2.64323V0.365554C11.627 0.168717 11.7957 0 11.9925 0C12.2034 0 12.3581 0.168717 12.3581 0.365554V2.64323C12.3581 2.85413 12.2034 3.00879 11.9925 3.00879Z" fill="#FF9D05"/>
<path id="Vector_3" fill-rule="evenodd" clip-rule="evenodd" d="M16.674 4.2599C16.6037 4.2599 16.5475 4.24584 16.4913 4.21772C16.3085 4.1193 16.2522 3.89435 16.3507 3.72563L17.5036 1.7432C17.602 1.56043 17.8269 1.50419 17.9956 1.60261C18.1644 1.70103 18.2347 1.92598 18.1222 2.10876L16.9833 4.07712C16.913 4.20366 16.8006 4.2599 16.674 4.2599Z" fill="#FF9D05"/>
<path id="Vector_4" fill-rule="evenodd" clip-rule="evenodd" d="M20.0921 7.69112C19.9656 7.69112 19.839 7.62082 19.7828 7.50834C19.6844 7.32556 19.7406 7.11467 19.9093 7.00219L21.8918 5.86335C22.0605 5.76493 22.2854 5.82117 22.3839 6.00395C22.4823 6.17266 22.426 6.39762 22.2573 6.49604L20.2749 7.63488C20.2187 7.67706 20.1624 7.69112 20.0921 7.69112Z" fill="#FF9D05"/>
<path id="Vector_5" fill-rule="evenodd" clip-rule="evenodd" d="M23.6339 12.3581H21.3421C21.1453 12.3581 20.9766 12.2034 20.9766 11.9925C20.9766 11.7957 21.1453 11.627 21.3421 11.627H23.6339C23.8307 11.627 23.9994 11.7957 23.9994 11.9925C23.9994 12.2034 23.8307 12.3581 23.6339 12.3581Z" fill="#FF9D05"/>
<path id="Vector_6" fill-rule="evenodd" clip-rule="evenodd" d="M22.0745 18.1794C22.0042 18.1794 21.948 18.1653 21.8918 18.1232L19.9093 16.9843C19.7406 16.8859 19.6844 16.6609 19.7828 16.4922C19.8812 16.3095 20.1062 16.2532 20.2749 16.3516L22.2573 17.5045C22.426 17.6029 22.4823 17.8279 22.3839 17.9966C22.3276 18.1091 22.2011 18.1794 22.0745 18.1794Z" fill="#FF9D05"/>
<path id="Vector_7" fill-rule="evenodd" clip-rule="evenodd" d="M17.8129 22.4391C17.6863 22.4391 17.5598 22.3688 17.5036 22.2563L16.3507 20.2739C16.2522 20.1052 16.3085 19.8802 16.4913 19.7818C16.66 19.6834 16.8849 19.7396 16.9833 19.9084L18.1222 21.8908C18.2347 22.0595 18.1644 22.2845 17.9956 22.3829C17.9394 22.4251 17.8691 22.4391 17.8129 22.4391Z" fill="#FF9D05"/>
<path id="Vector_8" fill-rule="evenodd" clip-rule="evenodd" d="M11.9925 24.0004C11.7957 24.0004 11.627 23.8317 11.627 23.6348V21.3431C11.627 21.1463 11.7957 20.9775 11.9925 20.9775C12.2034 20.9775 12.3581 21.1463 12.3581 21.3431V23.6348C12.3581 23.8317 12.2034 24.0004 11.9925 24.0004Z" fill="#FF9D05"/>
<path id="Vector_9" fill-rule="evenodd" clip-rule="evenodd" d="M6.18575 22.4395C6.11545 22.4395 6.05921 22.4254 6.00297 22.3833C5.82019 22.2849 5.76395 22.0599 5.86237 21.8912L7.00121 19.9088C7.11369 19.74 7.32459 19.6697 7.50736 19.7822C7.67608 19.8806 7.73232 20.1056 7.6339 20.2743L6.49506 22.2567C6.42476 22.3692 6.31229 22.4395 6.18575 22.4395Z" fill="#FF9D05"/>
<path id="Vector_10" fill-rule="evenodd" clip-rule="evenodd" d="M1.92598 18.1794C1.79944 18.1794 1.67291 18.1091 1.60261 17.9966C1.50419 17.8279 1.56043 17.6029 1.7432 17.5045L3.72563 16.3516C3.89435 16.2532 4.1193 16.3095 4.21772 16.4922C4.31614 16.6609 4.2599 16.8859 4.09118 16.9843L2.10876 18.1232C2.05252 18.1653 1.98222 18.1794 1.92598 18.1794Z" fill="#FF9D05"/>
<path id="Vector_11" fill-rule="evenodd" clip-rule="evenodd" d="M2.64323 12.3581H0.365554C0.168717 12.3581 0 12.2034 0 11.9925C0 11.7957 0.168717 11.627 0.365554 11.627H2.64323C2.85413 11.627 3.00879 11.7957 3.00879 11.9925C3.00879 12.2034 2.85413 12.3581 2.64323 12.3581Z" fill="#FF9D05"/>
<path id="Vector_12" fill-rule="evenodd" clip-rule="evenodd" d="M3.90841 7.69112C3.83811 7.69112 3.78187 7.67706 3.72563 7.63488L1.7432 6.49604C1.56043 6.39762 1.50419 6.17266 1.60261 6.00395C1.70103 5.82117 1.92598 5.76493 2.10876 5.86335L4.09118 7.00219C4.2599 7.11467 4.31614 7.32556 4.21772 7.50834C4.14742 7.62082 4.02088 7.69112 3.90841 7.69112Z" fill="#FF9D05"/>
<path id="Vector_13" fill-rule="evenodd" clip-rule="evenodd" d="M7.32459 4.2599C7.19805 4.2599 7.07151 4.20366 7.00121 4.09118L5.86237 2.10876C5.76395 1.92598 5.82019 1.70103 6.00297 1.60261C6.17169 1.50419 6.39664 1.56043 6.49506 1.7432L7.6339 3.72563C7.73232 3.89435 7.67608 4.1193 7.50736 4.21772C7.45113 4.24584 7.38083 4.2599 7.32459 4.2599Z" fill="#FF9D05"/>
</g>
<path id="Vector_14" fill-rule="evenodd" clip-rule="evenodd" d="M14.636 16.4217C14.5938 16.4217 14.5516 16.4217 14.5094 16.3936L11.9927 15.4235L9.49011 16.3936C9.37763 16.4498 9.23703 16.4217 9.13861 16.3514C9.0402 16.2811 8.98396 16.1686 8.99802 16.0421L9.15267 13.3567L7.43738 11.2758C7.36709 11.1774 7.33897 11.0509 7.38115 10.9243C7.42333 10.8119 7.50768 10.7135 7.63422 10.6853L10.2353 10.0105L11.6975 7.73278C11.7537 7.63436 11.8803 7.57812 11.9927 7.57812C12.1193 7.57812 12.2318 7.63436 12.3021 7.73278L13.7643 10.0105L16.3653 10.6853C16.4778 10.7135 16.5762 10.8119 16.6184 10.9243C16.6606 11.0509 16.6325 11.1774 16.5481 11.2758L14.8469 13.3567L15.0015 16.0421C15.0015 16.1686 14.9453 16.2811 14.8469 16.3514C14.7906 16.4077 14.7063 16.4217 14.636 16.4217Z" fill="white"/>
</g>
</g>
<defs>
<clipPath id="clip0_408_19507">
<rect width="24" height="24" fill="white"/>
</clipPath>
</defs>
</svg>
