<svg width="20" height="20" viewBox="0 0 20 20" fill="none" xmlns="http://www.w3.org/2000/svg">
<path id="Vector" fill-rule="evenodd" clip-rule="evenodd" d="M15.1195 19.4214C15.0318 19.4214 14.9442 19.4214 14.8565 19.3614L9.62585 17.2941L4.42442 19.3614C4.19064 19.4813 3.89843 19.4214 3.69388 19.2716C3.48933 19.1217 3.37244 18.882 3.40166 18.6124L3.7231 12.8896L0.158075 8.45523C0.0119674 8.2455 -0.0464757 7.97584 0.0411889 7.70618C0.128853 7.46648 0.304183 7.25675 0.567176 7.19682L5.97316 5.75864L9.01219 0.904779C9.12908 0.695044 9.39207 0.575195 9.62585 0.575195C9.88884 0.575195 10.1226 0.695044 10.2687 0.904779L13.3078 5.75864L18.7137 7.19682C18.9475 7.25675 19.1521 7.46648 19.2397 7.70618C19.3274 7.97584 19.2689 8.2455 19.0936 8.45523L15.5578 12.8896L15.8793 18.6124C15.8793 18.882 15.7624 19.1217 15.5578 19.2716C15.4409 19.3914 15.2656 19.4214 15.1195 19.4214Z" fill="#FFCB65"/>
</svg>
